<svg width="814" height="143" viewBox="0 0 814 143" fill="none" xmlns="http://www.w3.org/2000/svg">
<rect width="814" height="143" fill="white"/>
<circle cx="573.631" cy="79.6306" r="15.6306" fill="#1D8CFF"/>
<path d="M254.5 60.6818C254.258 58.5303 253.258 56.8636 251.5 55.6818C249.742 54.4848 247.53 53.8864 244.864 53.8864C242.955 53.8864 241.303 54.1894 239.909 54.7955C238.515 55.3864 237.432 56.2045 236.659 57.25C235.902 58.2803 235.523 59.4545 235.523 60.7727C235.523 61.8788 235.78 62.8333 236.295 63.6364C236.826 64.4394 237.515 65.1136 238.364 65.6591C239.227 66.1894 240.152 66.6364 241.136 67C242.121 67.3485 243.068 67.6364 243.977 67.8636L248.523 69.0455C250.008 69.4091 251.53 69.9015 253.091 70.5227C254.652 71.1439 256.098 71.9621 257.432 72.9773C258.765 73.9924 259.841 75.25 260.659 76.75C261.492 78.25 261.909 80.0455 261.909 82.1364C261.909 84.7727 261.227 87.1136 259.864 89.1591C258.515 91.2045 256.553 92.8182 253.977 94C251.417 95.1818 248.318 95.7727 244.682 95.7727C241.197 95.7727 238.182 95.2197 235.636 94.1136C233.091 93.0076 231.098 91.4394 229.659 89.4091C228.22 87.3636 227.424 84.9394 227.273 82.1364H234.318C234.455 83.8182 235 85.2197 235.955 86.3409C236.924 87.447 238.159 88.2727 239.659 88.8182C241.174 89.3485 242.833 89.6136 244.636 89.6136C246.621 89.6136 248.386 89.303 249.932 88.6818C251.492 88.0455 252.72 87.1667 253.614 86.0455C254.508 84.9091 254.955 83.5833 254.955 82.0682C254.955 80.6894 254.561 79.5606 253.773 78.6818C253 77.803 251.947 77.0758 250.614 76.5C249.295 75.9242 247.803 75.4167 246.136 74.9773L240.636 73.4773C236.909 72.4621 233.955 70.9697 231.773 69C229.606 67.0303 228.523 64.4242 228.523 61.1818C228.523 58.5 229.25 56.1591 230.705 54.1591C232.159 52.1591 234.129 50.6061 236.614 49.5C239.098 48.3788 241.902 47.8182 245.023 47.8182C248.174 47.8182 250.955 48.3712 253.364 49.4773C255.788 50.5833 257.697 52.1061 259.091 54.0455C260.485 55.9697 261.212 58.1818 261.273 60.6818H254.5ZM276.551 74.2727V95H269.756V48.4545H276.46V65.7727H276.892C277.71 63.8939 278.96 62.4015 280.642 61.2955C282.324 60.1894 284.521 59.6364 287.233 59.6364C289.627 59.6364 291.718 60.1288 293.506 61.1136C295.309 62.0985 296.703 63.5682 297.688 65.5227C298.688 67.4621 299.188 69.8864 299.188 72.7955V95H292.392V73.6136C292.392 71.053 291.733 69.0682 290.415 67.6591C289.097 66.2348 287.263 65.5227 284.915 65.5227C283.309 65.5227 281.869 65.8636 280.597 66.5455C279.339 67.2273 278.347 68.2273 277.619 69.5455C276.907 70.8485 276.551 72.4242 276.551 74.2727ZM318.415 95.7727C316.203 95.7727 314.203 95.3636 312.415 94.5455C310.627 93.7121 309.21 92.5076 308.165 90.9318C307.134 89.3561 306.619 87.4242 306.619 85.1364C306.619 83.1667 306.998 81.5455 307.756 80.2727C308.513 79 309.536 77.9924 310.824 77.25C312.112 76.5076 313.551 75.947 315.142 75.5682C316.733 75.1894 318.354 74.9015 320.006 74.7045C322.097 74.4621 323.794 74.2652 325.097 74.1136C326.4 73.947 327.347 73.6818 327.938 73.3182C328.528 72.9545 328.824 72.3636 328.824 71.5455V71.3864C328.824 69.4015 328.263 67.8636 327.142 66.7727C326.036 65.6818 324.384 65.1364 322.188 65.1364C319.9 65.1364 318.097 65.6439 316.778 66.6591C315.475 67.6591 314.574 68.7727 314.074 70L307.688 68.5455C308.445 66.4242 309.551 64.7121 311.006 63.4091C312.475 62.0909 314.165 61.1364 316.074 60.5455C317.983 59.9394 319.991 59.6364 322.097 59.6364C323.491 59.6364 324.968 59.803 326.528 60.1364C328.104 60.4545 329.574 61.0455 330.938 61.9091C332.316 62.7727 333.445 64.0076 334.324 65.6136C335.203 67.2045 335.642 69.2727 335.642 71.8182V95H329.006V90.2273H328.733C328.294 91.1061 327.634 91.9697 326.756 92.8182C325.877 93.6667 324.748 94.3712 323.369 94.9318C321.991 95.4924 320.339 95.7727 318.415 95.7727ZM319.892 90.3182C321.771 90.3182 323.377 89.947 324.71 89.2045C326.059 88.4621 327.081 87.4924 327.778 86.2955C328.491 85.0833 328.847 83.7879 328.847 82.4091V77.9091C328.604 78.1515 328.134 78.3788 327.438 78.5909C326.756 78.7879 325.975 78.9621 325.097 79.1136C324.218 79.25 323.362 79.3788 322.528 79.5C321.695 79.6061 320.998 79.697 320.438 79.7727C319.119 79.9394 317.915 80.2197 316.824 80.6136C315.748 81.0076 314.884 81.5758 314.233 82.3182C313.597 83.0455 313.278 84.0152 313.278 85.2273C313.278 86.9091 313.9 88.1818 315.142 89.0455C316.384 89.8939 317.968 90.3182 319.892 90.3182ZM344.693 95V60.0909H351.261V65.6364H351.625C352.261 63.7576 353.383 62.2803 354.989 61.2045C356.61 60.1136 358.443 59.5682 360.489 59.5682C360.913 59.5682 361.413 59.5833 361.989 59.6136C362.58 59.6439 363.042 59.6818 363.375 59.7273V66.2273C363.102 66.1515 362.617 66.0682 361.92 65.9773C361.223 65.8712 360.527 65.8182 359.83 65.8182C358.223 65.8182 356.792 66.1591 355.534 66.8409C354.292 67.5076 353.307 68.4394 352.58 69.6364C351.852 70.8182 351.489 72.1667 351.489 73.6818V95H344.693ZM383.051 95.7045C379.612 95.7045 376.65 94.9697 374.165 93.5C371.695 92.0152 369.786 89.9318 368.438 87.25C367.104 84.553 366.438 81.3939 366.438 77.7727C366.438 74.197 367.104 71.0455 368.438 68.3182C369.786 65.5909 371.665 63.4621 374.074 61.9318C376.498 60.4015 379.331 59.6364 382.574 59.6364C384.544 59.6364 386.453 59.9621 388.301 60.6136C390.15 61.2652 391.809 62.2879 393.278 63.6818C394.748 65.0758 395.907 66.8864 396.756 69.1136C397.604 71.3258 398.028 74.0152 398.028 77.1818V79.5909H370.278V74.5H391.369C391.369 72.7121 391.006 71.1288 390.278 69.75C389.551 68.3561 388.528 67.2576 387.21 66.4545C385.907 65.6515 384.377 65.25 382.619 65.25C380.71 65.25 379.044 65.7197 377.619 66.6591C376.21 67.5833 375.119 68.7955 374.347 70.2955C373.589 71.7803 373.21 73.3939 373.21 75.1364V79.1136C373.21 81.447 373.619 83.4318 374.438 85.0682C375.271 86.7045 376.43 87.9545 377.915 88.8182C379.4 89.6667 381.134 90.0909 383.119 90.0909C384.407 90.0909 385.581 89.9091 386.642 89.5455C387.703 89.1667 388.619 88.6061 389.392 87.8636C390.165 87.1212 390.756 86.2045 391.165 85.1136L397.597 86.2727C397.081 88.1667 396.157 89.8258 394.824 91.25C393.506 92.6591 391.847 93.7576 389.847 94.5455C387.862 95.3182 385.597 95.7045 383.051 95.7045ZM431.727 68.6136L425.568 69.7045C425.311 68.9167 424.902 68.1667 424.341 67.4545C423.795 66.7424 423.053 66.1591 422.114 65.7045C421.174 65.25 420 65.0227 418.591 65.0227C416.667 65.0227 415.061 65.4545 413.773 66.3182C412.485 67.1667 411.841 68.2652 411.841 69.6136C411.841 70.7803 412.273 71.7197 413.136 72.4318C414 73.1439 415.394 73.7273 417.318 74.1818L422.864 75.4545C426.076 76.197 428.47 77.3409 430.045 78.8864C431.621 80.4318 432.409 82.4394 432.409 84.9091C432.409 87 431.803 88.8636 430.591 90.5C429.394 92.1212 427.72 93.3939 425.568 94.3182C423.432 95.2424 420.955 95.7045 418.136 95.7045C414.227 95.7045 411.038 94.8712 408.568 93.2045C406.098 91.5227 404.583 89.1364 404.023 86.0455L410.591 85.0455C411 86.7576 411.841 88.053 413.114 88.9318C414.386 89.7955 416.045 90.2273 418.091 90.2273C420.318 90.2273 422.098 89.7652 423.432 88.8409C424.765 87.9015 425.432 86.7576 425.432 85.4091C425.432 84.3182 425.023 83.4015 424.205 82.6591C423.402 81.9167 422.167 81.3561 420.5 80.9773L414.591 79.6818C411.333 78.9394 408.924 77.7576 407.364 76.1364C405.818 74.5152 405.045 72.4621 405.045 69.9773C405.045 67.9167 405.621 66.1136 406.773 64.5682C407.924 63.0227 409.515 61.8182 411.545 60.9545C413.576 60.0758 415.902 59.6364 418.523 59.6364C422.295 59.6364 425.265 60.4545 427.432 62.0909C429.598 63.7121 431.03 65.8864 431.727 68.6136ZM446.676 74.2727V95H439.881V60.0909H446.403V65.7727H446.835C447.638 63.9242 448.896 62.4394 450.608 61.3182C452.335 60.197 454.509 59.6364 457.131 59.6364C459.509 59.6364 461.593 60.1364 463.381 61.1364C465.169 62.1212 466.555 63.5909 467.54 65.5455C468.525 67.5 469.017 69.9167 469.017 72.7955V95H462.222V73.6136C462.222 71.0833 461.563 69.1061 460.244 67.6818C458.926 66.2424 457.116 65.5227 454.812 65.5227C453.237 65.5227 451.835 65.8636 450.608 66.5455C449.396 67.2273 448.434 68.2273 447.722 69.5455C447.025 70.8485 446.676 72.4242 446.676 74.2727ZM488.29 95.7727C486.078 95.7727 484.078 95.3636 482.29 94.5455C480.502 93.7121 479.085 92.5076 478.04 90.9318C477.009 89.3561 476.494 87.4242 476.494 85.1364C476.494 83.1667 476.873 81.5455 477.631 80.2727C478.388 79 479.411 77.9924 480.699 77.25C481.987 76.5076 483.426 75.947 485.017 75.5682C486.608 75.1894 488.229 74.9015 489.881 74.7045C491.972 74.4621 493.669 74.2652 494.972 74.1136C496.275 73.947 497.222 73.6818 497.812 73.3182C498.403 72.9545 498.699 72.3636 498.699 71.5455V71.3864C498.699 69.4015 498.138 67.8636 497.017 66.7727C495.911 65.6818 494.259 65.1364 492.062 65.1364C489.775 65.1364 487.972 65.6439 486.653 66.6591C485.35 67.6591 484.449 68.7727 483.949 70L477.562 68.5455C478.32 66.4242 479.426 64.7121 480.881 63.4091C482.35 62.0909 484.04 61.1364 485.949 60.5455C487.858 59.9394 489.866 59.6364 491.972 59.6364C493.366 59.6364 494.843 59.803 496.403 60.1364C497.979 60.4545 499.449 61.0455 500.812 61.9091C502.191 62.7727 503.32 64.0076 504.199 65.6136C505.078 67.2045 505.517 69.2727 505.517 71.8182V95H498.881V90.2273H498.608C498.169 91.1061 497.509 91.9697 496.631 92.8182C495.752 93.6667 494.623 94.3712 493.244 94.9318C491.866 95.4924 490.214 95.7727 488.29 95.7727ZM489.767 90.3182C491.646 90.3182 493.252 89.947 494.585 89.2045C495.934 88.4621 496.956 87.4924 497.653 86.2955C498.366 85.0833 498.722 83.7879 498.722 82.4091V77.9091C498.479 78.1515 498.009 78.3788 497.312 78.5909C496.631 78.7879 495.85 78.9621 494.972 79.1136C494.093 79.25 493.237 79.3788 492.403 79.5C491.57 79.6061 490.873 79.697 490.312 79.7727C488.994 79.9394 487.79 80.2197 486.699 80.6136C485.623 81.0076 484.759 81.5758 484.108 82.3182C483.472 83.0455 483.153 84.0152 483.153 85.2273C483.153 86.9091 483.775 88.1818 485.017 89.0455C486.259 89.8939 487.843 90.3182 489.767 90.3182ZM514.568 108.091V60.0909H521.205V65.75H521.773C522.167 65.0227 522.735 64.1818 523.477 63.2273C524.22 62.2727 525.25 61.4394 526.568 60.7273C527.886 60 529.629 59.6364 531.795 59.6364C534.614 59.6364 537.129 60.3485 539.341 61.7727C541.553 63.197 543.288 65.25 544.545 67.9318C545.818 70.6136 546.455 73.8409 546.455 77.6136C546.455 81.3864 545.826 84.6212 544.568 87.3182C543.311 90 541.583 92.0682 539.386 93.5227C537.189 94.9621 534.682 95.6818 531.864 95.6818C529.742 95.6818 528.008 95.3258 526.659 94.6136C525.326 93.9015 524.28 93.0682 523.523 92.1136C522.765 91.1591 522.182 90.3106 521.773 89.5682H521.364V108.091H514.568ZM521.227 77.5455C521.227 80 521.583 82.1515 522.295 84C523.008 85.8485 524.038 87.2955 525.386 88.3409C526.735 89.3712 528.386 89.8864 530.341 89.8864C532.371 89.8864 534.068 89.3485 535.432 88.2727C536.795 87.1818 537.826 85.7045 538.523 83.8409C539.235 81.9773 539.591 79.8788 539.591 77.5455C539.591 75.2424 539.242 73.1742 538.545 71.3409C537.864 69.5076 536.833 68.0606 535.455 67C534.091 65.9394 532.386 65.4091 530.341 65.4091C528.371 65.4091 526.705 65.9167 525.341 66.9318C523.992 67.947 522.97 69.3636 522.273 71.1818C521.576 73 521.227 75.1212 521.227 77.5455Z" fill="#2A2A2A"/>
</svg>
